<?xml version="1.0" standalone="no"?><!DOCTYPE svg PUBLIC "-//W3C//DTD SVG 1.1//EN" "http://www.w3.org/Graphics/SVG/1.1/DTD/svg11.dtd"><svg t="1568645324558" class="icon" viewBox="0 0 1024 1024" version="1.1" xmlns="http://www.w3.org/2000/svg" p-id="3820" xmlns:xlink="http://www.w3.org/1999/xlink" width="200" height="200"><defs><style type="text/css"></style></defs><path d="M164 910.896a381.336 81.488 0 1 0 762.672 0 381.336 81.488 0 1 0-762.672 0Z" fill="#B8CBCD" p-id="3821"></path><path d="M764 293.4h128v112h-128z" fill="#B9E3ED" p-id="3822"></path><path d="M892 429.4h-128a24 24 0 0 1-24-24v-112a24 24 0 0 1 24-24h128a24 24 0 0 1 24 24v112a24 24 0 0 1-24 24z m-104-48h80v-64h-80v64z" fill="#324654" p-id="3823"></path><path d="M764 477.4h128v112h-128z" fill="#B2EDA6" p-id="3824"></path><path d="M892 613.4h-128a24 24 0 0 1-24-24v-112a24 24 0 0 1 24-24h128a24 24 0 0 1 24 24v112a24 24 0 0 1-24 24z m-104-48h80v-64h-80v64z" fill="#3C663E" p-id="3825"></path><path d="M764 661.4h128v112h-128z" fill="#FFBAB0" p-id="3826"></path><path d="M892 797.4h-128a24 24 0 0 1-24-24v-112a24 24 0 0 1 24-24h128a24 24 0 0 1 24 24v112a24 24 0 0 1-24 24z m-104-48h80v-64h-80v64z" fill="#783741" p-id="3827"></path><path d="M796 189.4v712h-656v-712" fill="#F7BB83" p-id="3828"></path><path d="M796 925.4h-656a24 24 0 0 1-24-24v-712a24 24 0 1 1 48 0v688h608v-688a24 24 0 1 1 48 0v712a24 24 0 0 1-24 24z" fill="#6E4123" p-id="3829"></path><path d="M796 189.4v-4.688c0-2.576-2.4-18.88-5.336-36.24l-5.328-31.512c-2.936-17.36-19.736-31.552-37.336-31.552h-560c-17.6 0-34.4 14.192-37.336 31.552l-5.328 31.512c-2.936 17.36-5.336 33.664-5.336 36.24v4.688" fill="#FFFFFF" p-id="3830"></path><path d="M796 213.4a24 24 0 0 1-24-24v-4.008c-0.312-3.304-2.184-16.288-5-32.912l-5.328-31.52c-0.984-5.832-7.76-11.552-13.672-11.552h-560c-5.912 0-12.688 5.728-13.672 11.56l-5.328 31.512c-2.816 16.632-4.688 29.616-5 32.92v4.008a24 24 0 1 1-48 0v-4.688c0-5.856 3.552-27.728 5.672-40.248l5.328-31.512c4.888-28.912 31.688-51.552 61-51.552h560c29.312 0 56.112 22.64 61 51.544l5.328 31.52c2.12 12.512 5.672 34.392 5.672 40.24v4.688a24 24 0 0 1-24 24z" fill="#6E4123" p-id="3831"></path><path d="M149.376 205.4H796" fill="#FFFFFF" p-id="3832"></path><path d="M796 221.4H149.376a16 16 0 0 1 0-32H796a16 16 0 0 1 0 32z" fill="#6E4123" p-id="3833"></path><path d="M156 149.4h624" fill="#FFFFFF" p-id="3834"></path><path d="M780 165.4h-624a16 16 0 0 1 0-32h624a16 16 0 0 1 0 32zM460 733.4c-101.68 0-160-64.152-160-176 0-129.904 86.184-176 160-176 98.912 0 168 65.8 168 160 0 28.448 0 104-64 104-15.544 0-31.328-6.352-44.144-18.152-2.088 2.392-4.328 4.64-6.728 6.768-23.968 21.152-54.44 20.096-62.456 19.368-42.336-0.784-70.68-39.16-70.68-95.984 0-59.216 30.656-96 80-96s80 36.784 80 96c0 27.288 14.32 40 24 40 3.96 0 16 0 16-56 0-68.04-47.104-112-120-112-33.672 0-112 12.472-112 128 0 86.136 36.632 128 112 128 41.128 0 69.104-13.384 69.384-13.52a24.08 24.08 0 0 1 32.08 10.928c5.84 11.84 1.088 26.16-10.728 32.064-1.512 0.752-37.672 18.528-90.728 18.528z m-5.024-127.816c0.064 0.008 16.36 1.504 26.584-7.736 6.928-6.256 10.44-17.168 10.44-32.456 0-0.832 0.04-1.656 0.128-2.472a114.416 114.416 0 0 1-0.128-5.528c0-48-24.088-48-32-48s-32 0-32 48c0 4.912 0.672 48 24 48 0.992 0.008 1.992 0.072 2.976 0.192z" fill="#6E4123" p-id="3835"></path></svg>