<?xml version="1.0" standalone="no"?><!DOCTYPE svg PUBLIC "-//W3C//DTD SVG 1.1//EN" "http://www.w3.org/Graphics/SVG/1.1/DTD/svg11.dtd"><svg t="1568630961942" class="icon" viewBox="0 0 1024 1024" version="1.1" xmlns="http://www.w3.org/2000/svg" p-id="2130" xmlns:xlink="http://www.w3.org/1999/xlink" width="200" height="200"><defs><style type="text/css"></style></defs><path d="M51.368 700.232l50.92-50.904 186.672 16.968-11.32 79.192-50.904 39.592z" fill="#B9E3ED" p-id="2131"></path><path d="M226.728 801.08c-2.368 0-4.752-0.52-6.968-1.592L44.4 714.64a16 16 0 0 1-4.344-25.72l50.912-50.904a16.144 16.144 0 0 1 12.76-4.624L290.4 650.36a16.008 16.008 0 0 1 14.392 18.2l-11.32 79.192a16 16 0 0 1-6.016 10.368l-50.912 39.592c-2.848 2.232-6.32 3.368-9.816 3.368zM78.6 695.632l146.152 70.72 37.96-29.52 8.016-56.128-162.44-14.768-29.688 29.696z" fill="#324654" p-id="2132"></path><path d="M342.056 982.928l50.904-50.912-16.968-186.68-79.192 11.32-39.6 50.904z" fill="#B9E3ED" p-id="2133"></path><path d="M342.056 998.928a15.96 15.96 0 0 1-14.4-9.032L242.8 814.528a16 16 0 0 1 1.776-16.792l39.592-50.904a16 16 0 0 1 10.36-6.016l79.192-11.32a15.992 15.992 0 0 1 18.2 14.392l16.968 186.68a16.008 16.008 0 0 1-4.616 12.76l-50.904 50.912a16 16 0 0 1-11.312 4.688z m-66.12-189.392l70.72 146.168 29.696-29.704-14.768-162.448-56.128 8.024-29.52 37.96z" fill="#324654" p-id="2134"></path><path d="M315.704 291.832a32 32 0 0 1-45.256-45.256l67.88-67.88a32 32 0 0 1 45.256 45.256l-67.88 67.88z" fill="#B9E3ED" p-id="2135"></path><path d="M293.08 317.2a47.672 47.672 0 0 1-33.936-14.056 48.048 48.048 0 0 1 0-67.88l67.88-67.88a47.68 47.68 0 0 1 33.936-14.056c12.824 0 24.872 4.992 33.944 14.056a48.056 48.056 0 0 1 0 67.88l-67.888 67.88a47.672 47.672 0 0 1-33.936 14.056z m67.88-131.872c-4.272 0-8.296 1.664-11.312 4.68l-67.88 67.88c-6.24 6.24-6.24 16.392 0 22.632 6.032 6.032 16.592 6.032 22.624 0l67.88-67.88a16.032 16.032 0 0 0 0-22.632 15.888 15.888 0 0 0-11.312-4.68z" fill="#324654" p-id="2136"></path><path d="M483.704 291.832a32 32 0 0 1-45.256-45.256l67.88-67.88a32 32 0 0 1 45.256 45.256l-67.88 67.88z" fill="#B9E3ED" p-id="2137"></path><path d="M461.08 317.2a47.672 47.672 0 0 1-33.936-14.056 48.048 48.048 0 0 1 0-67.88l67.88-67.88a47.68 47.68 0 0 1 33.936-14.056c12.824 0 24.872 4.992 33.944 14.056a48.056 48.056 0 0 1 0 67.88l-67.888 67.88a47.672 47.672 0 0 1-33.936 14.056z m67.88-131.872c-4.272 0-8.296 1.664-11.312 4.68l-67.88 67.88c-6.24 6.24-6.24 16.392 0 22.632 6.032 6.032 16.592 6.032 22.624 0l67.88-67.88a16.032 16.032 0 0 0 0-22.632 15.888 15.888 0 0 0-11.312-4.68z" fill="#324654" p-id="2138"></path><path d="M48.96 310.56l96-61.224h552L558.08 435.008z" fill="#B9E3ED" p-id="2139"></path><path d="M558.08 451.008c-1.264 0-2.536-0.152-3.8-0.464L45.16 326.096a15.984 15.984 0 0 1-4.808-29.032l96-61.224a16 16 0 0 1 8.608-2.512h552a16.008 16.008 0 0 1 12.816 25.584l-138.88 185.672a16.008 16.008 0 0 1-12.816 6.424zM89.144 303.912l462.464 113.04 113.408-151.616H149.632l-60.488 38.576z" fill="#324654" p-id="2140"></path><path d="M774.456 702.584a32 32 0 0 0 45.256 45.256l67.888-67.888a32 32 0 1 0-45.256-45.248l-67.888 67.88z" fill="#B9E3ED" p-id="2141"></path><path d="M797.088 773.208a47.728 47.728 0 0 1-33.944-14.048 48.08 48.08 0 0 1-0.008-67.888l67.88-67.88a47.656 47.656 0 0 1 33.936-14.064c12.824 0 24.872 4.992 33.944 14.056a48.072 48.072 0 0 1 0.016 67.88l-67.888 67.888a47.68 47.68 0 0 1-33.936 14.056z m67.872-131.88c-4.272 0-8.288 1.664-11.312 4.688l-67.88 67.88a16.032 16.032 0 0 0 0.008 22.632c6.032 6.032 16.584 6.032 22.624 0l67.888-67.888a16.016 16.016 0 0 0-11.328-27.312z" fill="#324654" p-id="2142"></path><path d="M774.456 534.584a32 32 0 1 0 45.256 45.256l67.88-67.88a32 32 0 1 0-45.256-45.256l-67.88 67.88z" fill="#B9E3ED" p-id="2143"></path><path d="M797.088 605.216a47.72 47.72 0 0 1-33.952-14.072 47.68 47.68 0 0 1-14.056-33.936c0-12.816 4.992-24.864 14.056-33.936l67.88-67.88a47.688 47.688 0 0 1 33.944-14.064c12.824 0 24.872 5 33.944 14.064a47.68 47.68 0 0 1 14.056 33.936 47.704 47.704 0 0 1-14.056 33.944l-67.88 67.88a47.664 47.664 0 0 1-33.936 14.064z m67.88-131.888a15.92 15.92 0 0 0-11.32 4.696l-67.872 67.872a15.92 15.92 0 0 0-4.68 11.312c0 4.272 1.664 8.288 4.68 11.312 6.048 6.04 16.584 6.056 22.632 0.008l67.88-67.88c3.016-3.024 4.68-7.048 4.68-11.32a15.92 15.92 0 0 0-4.68-11.312 15.92 15.92 0 0 0-11.32-4.688z" fill="#324654" p-id="2144"></path><path d="M755.72 969.336l69.24-96V321.328l-193.68 138.88z" fill="#B9E3ED" p-id="2145"></path><path d="M755.72 985.336a16.008 16.008 0 0 1-15.544-12.2L615.736 464.008a16 16 0 0 1 6.216-16.8l193.68-138.88a16 16 0 0 1 25.32 13l-0.008 552.008c0 3.36-1.056 6.632-3.024 9.36l-69.232 96c-3.032 4.216-7.88 6.64-12.968 6.64zM649.392 466.912l113.64 464.936 45.928-63.68 0.008-515.68-159.576 114.424z" fill="#324654" p-id="2146"></path><path d="M102.288 919.84a381.336 81.488 0 1 0 762.672 0 381.336 81.488 0 1 0-762.672 0Z" fill="#B8CBCD" p-id="2147"></path><path d="M974.312 180.472c3.664-32.464 11.344-79.216-11.288-101.856C940.4 56 893.64 63.68 861.176 67.344c-38.256 4.312-86.152 52.208-112.76 78.816-26.608 26.608-451.312 485.256-515.168 549.12-63.856 63.856-33.896 147.032-33.896 147.032s83.168 29.96 147.032-33.896c63.856-63.848 522.504-488.56 549.112-515.168 26.608-26.616 74.504-74.52 78.816-112.776z" fill="#FFFFFF" p-id="2148"></path><path d="M246.208 865.328c-29.808 0-51.368-7.648-52.272-7.968a15.992 15.992 0 0 1-9.632-9.632c-1.36-3.784-32.6-93.528 37.64-163.768 38.6-38.6 208.72-221.128 345.424-367.784C656.264 220.808 726.48 145.48 737.12 134.84c29.36-29.36 78.472-78.464 122.28-83.4l7.752-0.904c13.696-1.624 29.224-3.464 44.632-3.464 28.488 0 48.96 6.616 62.568 20.232 26.352 26.36 20.824 73.096 16.776 107.216l-0.904 7.744c-4.944 43.832-54.056 92.936-83.4 122.272-10.64 10.64-85.968 80.856-181.344 169.76-146.664 136.704-329.176 306.824-367.784 345.424-37.688 37.688-81.432 45.608-111.488 45.608z m-33.968-35.992c7.304 1.76 19.424 3.992 33.968 3.992 34.928 0 64.824-12.192 88.872-36.232 39-39 221.744-209.336 368.576-346.2 91.376-85.168 170.296-158.728 180.536-168.968 22.896-22.896 70.536-70.528 74.232-103.24l0.92-7.912c3.272-27.616 7.752-65.448-7.632-80.832-7.304-7.304-20.368-10.856-39.944-10.856-13.512 0-28.048 1.72-40.864 3.24l-7.928 0.92c-32.68 3.688-80.32 51.312-103.216 74.2-10.264 10.264-83.816 89.176-168.992 180.552-136.864 146.84-307.2 329.584-346.2 368.584-45.784 45.784-37.344 102.448-32.328 122.752z" fill="#324654" p-id="2149"></path><path d="M312.96 713.336s-160 40-168 168c112-8 160-104 168-168z" fill="#B9E3ED" p-id="2150"></path><path d="M144.96 897.336a15.976 15.976 0 0 1-15.968-17C137.624 742.24 302.08 699.56 309.08 697.808a16.008 16.008 0 0 1 19.752 17.504c-10.264 82.096-71.816 174.056-182.736 181.976a13.488 13.488 0 0 1-1.136 0.048z m146.872-160.064c-39.32 15.336-112.72 53.128-128.248 125.608 77.44-14.232 114.68-76.376 128.248-125.608z" fill="#324654" p-id="2151"></path><path d="M720.96 185.336s160.928-8.008 144.928 135.992c56-48 78.328-71.488 78.328-71.488s0.744-144.504-151.256-136.504l-72 72z" fill="#B9E3ED" p-id="2152"></path><path d="M865.88 337.328a15.976 15.976 0 0 1-15.904-17.76c3.792-34.12-3.096-61.264-20.48-80.68-32.056-35.816-92.296-37.624-104.048-37.624-2.224 0-3.544 0.056-3.728 0.064-6.56 0.16-12.72-3.488-15.384-9.52a15.992 15.992 0 0 1 3.312-17.776l72-72a15.92 15.92 0 0 1 10.472-4.664c4.384-0.232 8.64-0.344 12.792-0.344 46.248 0 83.464 13.832 110.616 41.12 44.512 44.744 44.704 109.072 44.688 111.792-0.016 4.08-1.6 7.992-4.408 10.944-0.936 0.984-23.536 24.632-79.512 72.608-2.96 2.528-6.672 3.84-10.416 3.84zM757.288 171.632c29.104 4.208 68.944 15.608 96.064 45.904 16.552 18.496 26.208 41.384 28.888 68.328 24.192-21.44 38.848-35.544 45.704-42.336-1.832-24.96-15.888-114.512-123.032-114.512-1.672 0-3.36 0.024-5.072 0.064l-42.552 42.552z" fill="#324654" p-id="2153"></path><path d="M350.056 1006.928a23.976 23.976 0 0 1-21.312-12.968l-60.168-116.208c-5.6-0.624-10.28-1.904-13.976-2.912l-0.384-0.104c-26.968 16.888-62.592 27.896-99.544 30.536a24 24 0 0 1-25.664-25.432c2.592-41.416 13.712-79.44 30.8-107.24L49.384 722.048a23.992 23.992 0 0 1-6.976-38.784l50.904-50.904a23.88 23.88 0 0 1 18.032-7.008l139.88 6.184c30.032-31.664 71.288-76.16 118.472-127.04 22.824-24.616 46.88-50.56 71.456-76.976L51.352 333.896a23.992 23.992 0 0 1-8.44-42.808l96-69.232a24.024 24.024 0 0 1 14.04-4.528h120.8l55.608-55.6a55.632 55.632 0 0 1 39.592-16.4 55.68 55.68 0 0 1 39.6 16.392 56.08 56.08 0 0 1 14.056 55.608h19.144l55.608-55.6a55.632 55.632 0 0 1 39.592-16.4 55.68 55.68 0 0 1 39.6 16.392 56.08 56.08 0 0 1 14.056 55.608h48.6c43.664-46.568 82.904-86.424 91.448-94.96 28.872-28.864 90.552-68.144 132.896-78.352 19.048-4.6 37.032-6.928 53.448-6.928 30.816 0 54.696 8.264 71 24.568 24.176 24.184 30 64.632 17.816 123.672-4.848 23.504-19.168 50.608-40.448 76.632a23.648 23.648 0 0 1-4.456 5.296c-14.336 16.832-29.36 31.864-40.448 42.944-1.128 1.128-3.088 3.208-5.816 6.096a1472.768 1472.768 0 0 1-57.696 58.072v61.272a56.24 56.24 0 0 1 16-2.312c14.96 0 29.024 5.824 39.6 16.408 21.832 21.832 21.832 57.352 0.008 79.192l-55.608 55.608-0.008 19.104a56.256 56.256 0 0 1 16.008-2.312c14.952 0 29.016 5.832 39.6 16.4 21.832 21.84 21.832 57.36 0.008 79.192l-55.616 55.608v120.808c0 5.04-1.584 9.952-4.536 14.04l-69.232 96a24 24 0 0 1-42.776-8.344l-97.808-400.16c-93.728 87.512-180.576 169.12-230.328 216.424l12.592 138.552a24 24 0 0 1-6.928 19.144l-50.904 50.912a24.032 24.032 0 0 1-16.968 7.024z m-67.088-177.592c8.832 0 17.128 4.888 21.304 12.968l52.008 100.456 19.76-19.768-12.632-138.912a23.984 23.984 0 0 1 7.336-19.536c52.856-50.4 158.472-149.592 269.064-252.728a24 24 0 0 1 39.68 11.856l95.184 389.432 34.272-47.512V742.592c0-6.368 2.528-12.472 7.032-16.968l62.64-62.64a8.016 8.016 0 0 0-11.336-11.304l-17.368 17.368a24.016 24.016 0 0 1-40.976-16.968l0.008-77.488c0-6.368 2.528-12.472 7.032-16.968l62.632-62.632a8.024 8.024 0 0 0-5.664-13.664 7.968 7.968 0 0 0-5.672 2.352l-17.36 17.368a24 24 0 0 1-40.976-16.968V364a24 24 0 0 1 7.616-17.536 1400.408 1400.408 0 0 0 63.208-63.16c3.16-3.336 5.432-5.736 6.744-7.04 10.896-10.896 25.816-25.824 39.32-41.872l0.544-0.616 0.168-0.208c16.864-20.168 28.92-41.824 32.24-57.936 11.2-54.288 1.832-73.448-4.752-80.032-8.68-8.68-24.944-10.504-37.056-10.504-12.448 0-27.04 1.936-42.192 5.584-33.064 7.976-86.392 41.824-110.208 65.64-8.88 8.872-51.44 52.112-97.424 101.392a24.024 24.024 0 0 1-17.544 7.624H542.216a24.016 24.016 0 0 1-16.968-40.976l17.376-17.376a8.024 8.024 0 0 0-0.008-11.32 7.968 7.968 0 0 0-5.656-2.336 7.976 7.976 0 0 0-5.656 2.336l-62.632 62.632a23.984 23.984 0 0 1-16.968 7.032h-77.488a24.016 24.016 0 0 1-16.968-40.976l17.376-17.376a8.024 8.024 0 0 0-0.008-11.32 7.968 7.968 0 0 0-5.656-2.336 7.976 7.976 0 0 0-5.656 2.336l-62.632 62.632a23.984 23.984 0 0 1-16.968 7.032H160.712l-47.296 34.112 378.928 91.016a23.984 23.984 0 0 1 11.944 39.704c-34.224 36.696-67.976 73.104-99.392 106.976-51.368 55.4-95.728 103.24-126.448 135.44a23.968 23.968 0 0 1-18.424 7.408l-140.24-6.2-19.016 19.008 104.768 47.96a23.984 23.984 0 0 1 13.712 25.568c-0.048 0.84-0.12 1.544-0.168 2.064a23.976 23.976 0 0 1-7.032 14.68c-14.184 13.976-25.544 39.872-31.352 69.968 20.976-4.776 40.104-12.816 54.088-23.064a24 24 0 0 1 15.72-4.584c6.816 0.448 12.328 1.952 16.76 3.168 5.336 1.464 7.424 1.992 10.968 1.264 1.584-0.328 3.168-0.472 4.736-0.472z" fill="#324654" p-id="2154"></path></svg>