<?xml version="1.0" standalone="no"?><!DOCTYPE svg PUBLIC "-//W3C//DTD SVG 1.1//EN" "http://www.w3.org/Graphics/SVG/1.1/DTD/svg11.dtd"><svg t="1568631452926" class="icon" viewBox="0 0 1024 1024" version="1.1" xmlns="http://www.w3.org/2000/svg" p-id="2278" xmlns:xlink="http://www.w3.org/1999/xlink" width="200" height="200"><defs><style type="text/css"></style></defs><path d="M124 903.848a381.336 94.504 0 1 0 762.672 0 381.336 94.504 0 1 0-762.672 0Z" fill="#B8CBCD" p-id="2279"></path><path d="M756 341.336c0 28.72-91.568 52-244 52-152.432 0-244-23.28-244-52s91.568-52 244-52c152.432 0 244 23.28 244 52z" fill="#FFFFFF" p-id="2280"></path><path d="M268 341.336c0-28.72 91.568-52 244-52 152.432 0 244 23.28 244 52l-64 568c0 28.72-27.568 52-180 52s-188-23.28-188-52l-56-568z" fill="#FFFFFF" p-id="2281"></path><path d="M724 601.336l-32 308c0 28.72-27.568 52-180 52s-188-23.28-188-52l-24-308s32-56 216-56c168 0 208 56 208 56" fill="#B2EDA6" p-id="2282"></path><path d="M475.992 641.344c-6.96 0-13.368-4.584-15.376-11.608l-96-336a16 16 0 0 1 30.768-8.8l96 336a16 16 0 0 1-15.392 20.408z" fill="#3C663E" p-id="2283"></path><path d="M652.032 945.336a24.008 24.008 0 0 1-23.888-26.688l64-568a24.072 24.072 0 0 1 26.536-21.16 24.008 24.008 0 0 1 21.168 26.536l-64 568a24 24 0 0 1-23.816 21.312z" fill="#3C663E" p-id="2284"></path><path d="M724 613.336a16 16 0 0 1-15.896-14.176c-8.36-9.784-68.328-29.824-201.64-29.824-126.944 0-179.336 19.224-185.56 28.928a16 16 0 0 1-31.976-0.928c0-52.2 136.296-60 217.536-60 54.792 0 233.536 4.328 233.536 60a16 16 0 0 1-16 16z" fill="#3C663E" p-id="2285"></path><path d="M522.464 673.336c-54.792 0-233.536-4.328-233.536-60a16 16 0 0 1 31.896-1.824c8.36 9.784 68.328 29.824 201.64 29.824 126.96 0 179.344-19.224 185.56-28.928a16.008 16.008 0 0 1 31.976 0.928c0 52.2-136.296 60-217.536 60zM372 304.016a24.008 24.008 0 0 1-22.752-16.368l-58.504-174.312H148a24 24 0 1 1 0-48h160a24 24 0 0 1 22.752 16.36l64 190.672a24 24 0 0 1-22.752 31.648z" fill="#3C663E" p-id="2286"></path><path d="M436 857.336m-24 0a24 24 0 1 0 48 0 24 24 0 1 0-48 0Z" fill="#3C663E" p-id="2287"></path><path d="M608 797.336m-20 0a20 20 0 1 0 40 0 20 20 0 1 0-40 0Z" fill="#3C663E" p-id="2288"></path><path d="M492 777.336m-16 0a16 16 0 1 0 32 0 16 16 0 1 0-32 0Z" fill="#3C663E" p-id="2289"></path><path d="M372 909.336l-56-568" fill="#F6E89A" p-id="2290"></path><path d="M371.968 933.336a24 24 0 0 1-23.848-21.648l-56-568a23.992 23.992 0 1 1 47.76-4.696l56 568a23.992 23.992 0 0 1-23.912 26.344z" fill="#FFFFFF" p-id="2291"></path><path d="M512 985.336c-109.384 0-210.656-9.088-211.984-74.688l-55.896-566.96a23.04 23.04 0 0 1-0.12-2.352c0-62.816 145.744-76 268-76s268 13.184 268 76c0 0.896-0.048 1.8-0.152 2.688l-63.864 566.8c-1.272 61.792-82.504 74.512-203.984 74.512zM292.424 344.448l55.464 562.528c0.08 0.784 0.12 1.56 0.12 2.352 0 0.28 1.872 28 164 28 144.752 0 156-21.432 156-28 0-0.896 0.048-1.8 0.152-2.688l63.352-562.256c-13.608-11.192-79.36-31.056-219.496-31.056-140.408 0.008-206.144 19.936-219.592 31.12z" fill="#3C663E" p-id="2292"></path><path d="M512 409.336c-78.176 0-260-6.624-260-68a16 16 0 0 1 32 0c4.576 10.808 68.512 36 228 36 159.48 0 223.424-25.192 228.104-36.688 0-8.832 7.12-15.656 15.952-15.656s15.944 7.512 15.944 16.344c0 61.376-181.832 68-260 68z" fill="#3C663E" p-id="2293"></path><path d="M556 625.336L730.84 99.68" fill="#FFBAB0" p-id="2294"></path><path d="M556 641.344a16 16 0 0 1-15.184-21.056l174.848-525.656a16 16 0 0 1 30.36 10.088L571.176 630.384a16 16 0 0 1-15.176 10.96z" fill="#783741" p-id="2295"></path><path d="M542.136 181.04c-13.792 37.776 40.648 92.328 121.584 121.872 80.936 29.528 157.728 22.84 171.504-14.92L738.776 108.88l-196.64 72.16z" fill="#FFBAB0" p-id="2296"></path><path d="M759.192 345.336c-0.008 0-0.008 0 0 0-32.208 0-68.072-6.872-103.704-19.872-96.4-35.192-154.824-100.816-135.904-152.648a24.016 24.016 0 0 1 14.28-14.304l196.64-72.16a24 24 0 0 1 29.4 11.144l96.456 179.112a24 24 0 0 1 1.416 19.608c-11.392 31.208-47.328 49.12-98.584 49.12z m-194.648-146.96c5.144 21.512 43.248 58.576 107.4 81.992 29.984 10.944 60.968 16.968 87.24 16.968h0.008c23.816 0 39.872-4.936 47.928-10.912l-79.616-147.84-162.96 59.792z" fill="#783741" p-id="2297"></path></svg>