<?xml version="1.0" standalone="no"?><!DOCTYPE svg PUBLIC "-//W3C//DTD SVG 1.1//EN" "http://www.w3.org/Graphics/SVG/1.1/DTD/svg11.dtd"><svg t="1568630132416" class="icon" viewBox="0 0 1024 1024" version="1.1" xmlns="http://www.w3.org/2000/svg" p-id="2267" xmlns:xlink="http://www.w3.org/1999/xlink" width="200" height="200"><defs><style type="text/css"></style></defs><path d="M168 858.896a381.336 81.488 0 1 0 762.672 0 381.336 81.488 0 1 0-762.672 0Z" fill="#B8CBCD" p-id="2268"></path><path d="M104 233.4h840v608H104z" fill="#B9E3ED" p-id="2269"></path><path d="M944 865.4H104a24 24 0 0 1-24-24v-608a24 24 0 0 1 24-24h840a24 24 0 0 1 24 24v608a24 24 0 0 1-24 24z m-816-48h792v-560H128v560z" fill="#324654" p-id="2270"></path><path d="M192 401.4h664v352H192z" fill="#FFFFFF" p-id="2271"></path><path d="M856 769.4H192a16 16 0 0 1-16-16v-352a16 16 0 0 1 16-16h664a16 16 0 0 1 16 16v352a16 16 0 0 1-16 16z m-648-32h632v-320H208v320z" fill="#324654" p-id="2272"></path><path d="M286.024 566.648c-30.944 0-46.64-19.952-46.64-59.296 0-18.04 0-65.952 48.64-65.952 33.872 0 39.168 21.392 39.664 23.824a16.008 16.008 0 0 1-12.52 18.856 16.064 16.064 0 0 1-17.816-9.24c-1.192-0.576-4.12-1.44-9.328-1.44-8.928 0-16.64 0-16.64 33.952 0 27.296 7.112 27.296 14.64 27.296 6.088 0 9.216-0.872 10.6-1.448a16.008 16.008 0 0 1 31.376 4.456c0 1.184-0.48 28.992-41.976 28.992z" fill="#324654" p-id="2273"></path><path d="M372 469.4m-20 0a20 20 0 1 0 40 0 20 20 0 1 0-40 0Z" fill="#324654" p-id="2274"></path><path d="M372 469.4m-20 0a20 20 0 1 0 40 0 20 20 0 1 0-40 0Z" fill="#324654" p-id="2275"></path><path d="M372 541.4m-20 0a20 20 0 1 0 40 0 20 20 0 1 0-40 0Z" fill="#324654" p-id="2276"></path><path d="M520 569.4a15.936 15.936 0 0 1-11.312-4.688l-92-92a16 16 0 1 1 22.624-22.624l92 92A16 16 0 0 1 520 569.4z" fill="#324654" p-id="2277"></path><path d="M112 241.4h824v80H112z" fill="#FFFFFF" p-id="2278"></path><path d="M936 337.4H112a16 16 0 0 1-16-16v-80a16 16 0 0 1 16-16h824a16 16 0 0 1 16 16v80a16 16 0 0 1-16 16z m-808-32h792v-48H128v48z" fill="#324654" p-id="2279"></path><path d="M888 297.4h-40a16 16 0 0 1 0-32h40a16 16 0 0 1 0 32z" fill="#324654" p-id="2280"></path></svg>