<?xml version="1.0" standalone="no"?><!DOCTYPE svg PUBLIC "-//W3C//DTD SVG 1.1//EN" "http://www.w3.org/Graphics/SVG/1.1/DTD/svg11.dtd"><svg t="1568631530218" class="icon" viewBox="0 0 1024 1024" version="1.1" xmlns="http://www.w3.org/2000/svg" p-id="2421" xmlns:xlink="http://www.w3.org/1999/xlink" width="200" height="200"><defs><style type="text/css"></style></defs><path d="M141.328 881.488a381.336 94.512 0 1 0 762.672 0 381.336 94.512 0 1 0-762.672 0Z" fill="#B8CBCD" p-id="2422"></path><path d="M517.32 544m-368 0a368 368 0 1 0 736 0 368 368 0 1 0-736 0Z" fill="#B2EDA6" p-id="2423"></path><path d="M517.32 936c-216.152 0-392-175.848-392-392s175.848-392 392-392 392 175.848 392 392-175.848 392-392 392z m0-736c-189.68 0-344 154.32-344 344s154.32 344 344 344 344-154.32 344-344-154.32-344-344-344z" fill="#3C663E" p-id="2424"></path><path d="M517.32 544m-296 0a296 296 0 1 0 592 0 296 296 0 1 0-592 0Z" fill="#FFFFFF" p-id="2425"></path><path d="M517.32 856c-172.04 0-312-139.96-312-312s139.96-312 312-312 312 139.96 312 312-139.96 312-312 312z m0-592c-154.392 0-280 125.608-280 280s125.608 280 280 280 280-125.608 280-280-125.608-280-280-280zM620.712 214.832c-2.256 0-4.528-0.32-6.736-0.968a345.744 345.744 0 0 0-186-2.08 24 24 0 0 1-30.128-21.144 126.36 126.36 0 0 1-0.52-10.648c0-68.376 55.624-124 124-124s124 55.624 124 124c0 4.336-0.24 8.72-0.752 13.392a23.976 23.976 0 0 1-10.512 17.376 23.92 23.92 0 0 1-13.352 4.072zM517.32 152c25.944 0 51.816 2.584 77.248 7.696C585.664 127.616 556.192 104 521.32 104c-34.288 0-63.344 22.824-72.776 54.08a392.536 392.536 0 0 1 68.776-6.08z" fill="#3C663E" p-id="2426"></path><path d="M432.216 628.36l-79.872-248.376 248.376 79.872 79.872 248.376z" fill="#B2EDA6" p-id="2427"></path><path d="M680.592 724.232c-1.64 0-3.288-0.248-4.896-0.768l-248.376-79.872a16.024 16.024 0 0 1-10.336-10.328L337.112 384.88a15.976 15.976 0 0 1 3.92-16.208 15.976 15.976 0 0 1 16.208-3.92l248.376 79.872a16 16 0 0 1 10.336 10.328l79.2 246.304a16 16 0 0 1-14.408 22.976h-0.152zM444.936 615.64l210.88 67.824L588 472.576l-210.88-67.824 67.816 210.888z" fill="#3C663E" p-id="2428"></path><path d="M517 543.424m-40 0a40 40 0 1 0 80 0 40 40 0 1 0-80 0Z" fill="#FFFFFF" p-id="2429"></path><path d="M516.992 599.424a55.632 55.632 0 0 1-39.6-16.4 55.632 55.632 0 0 1-16.4-39.592c0-14.96 5.824-29.024 16.4-39.6a55.632 55.632 0 0 1 39.6-16.4c14.96 0 29.024 5.824 39.6 16.4 21.832 21.84 21.832 57.368 0 79.192a55.632 55.632 0 0 1-39.6 16.4z m0-79.992c-6.408 0-12.44 2.496-16.976 7.024-4.528 4.536-7.024 10.56-7.024 16.976s2.496 12.432 7.024 16.968c9.072 9.072 24.872 9.072 33.944 0a24.032 24.032 0 0 0 0-33.936 23.808 23.808 0 0 0-16.968-7.032zM341.32 552h-64a16 16 0 0 1 0-32h64a16 16 0 0 1 0 32zM749.32 552h-64a16 16 0 0 1 0-32h64a16 16 0 0 1 0 32z" fill="#3C663E" p-id="2430"></path><path d="M517.32 824c-172.04 0-312-139.96-312-312a16 16 0 0 1 32 0c0 154.392 125.608 280 280 280s280-125.608 280-280a16 16 0 0 1 32 0c0 172.04-139.96 312-312 312z" fill="#3C663E" p-id="2431"></path></svg>