<?xml version="1.0" standalone="no"?><!DOCTYPE svg PUBLIC "-//W3C//DTD SVG 1.1//EN" "http://www.w3.org/Graphics/SVG/1.1/DTD/svg11.dtd"><svg t="1568631595932" class="icon" viewBox="0 0 1024 1024" version="1.1" xmlns="http://www.w3.org/2000/svg" p-id="2555" xmlns:xlink="http://www.w3.org/1999/xlink" width="200" height="200"><defs><style type="text/css"></style></defs><path d="M44 453.336h944v72H44z" fill="#FFFFFF" p-id="2556"></path><path d="M988 541.336H44a16 16 0 0 1-16-16v-72a16 16 0 0 1 16-16h944a16 16 0 0 1 16 16v72a16 16 0 0 1-16 16z m-928-32h912v-40H60v40z" fill="#6E4123" p-id="2557"></path><path d="M129.328 915.848a381.336 94.504 0 1 0 762.672 0 381.336 94.504 0 1 0-762.672 0Z" fill="#B8CBCD" p-id="2558"></path><path d="M764 517.336h200v408h-200" fill="#F7BB83" p-id="2559"></path><path d="M964 941.336h-200a16 16 0 0 1 0-32h184v-376h-184a16 16 0 0 1 0-32h200a16 16 0 0 1 16 16v408a16 16 0 0 1-16 16z" fill="#6E4123" p-id="2560"></path><path d="M764 373.336v552h-496v-568M276 517.344V373.336" fill="#F7BB83" p-id="2561"></path><path d="M276 533.344a16 16 0 0 1-16-16V373.336a16 16 0 0 1 32 0v144.008a16 16 0 0 1-16 16z" fill="#6E4123" p-id="2562"></path><path d="M764 925.336h-496" fill="#F7BB83" p-id="2563"></path><path d="M764 941.336h-496a16 16 0 0 1 0-32h496a16 16 0 0 1 0 32z" fill="#6E4123" p-id="2564"></path><path d="M756 373.336v144.008" fill="#F7BB83" p-id="2565"></path><path d="M756 533.344a16 16 0 0 1-16-16V373.336a16 16 0 0 1 32 0v144.008a16 16 0 0 1-16 16z" fill="#6E4123" p-id="2566"></path><path d="M268 925.336h-200v-408h200" fill="#F7BB83" p-id="2567"></path><path d="M268 941.336h-200a16 16 0 0 1-16-16v-408a16 16 0 0 1 16-16h200a16 16 0 0 1 0 32h-184v376h184a16 16 0 0 1 0 32z" fill="#6E4123" p-id="2568"></path><path d="M268 373.336h-48l104-144h376l112 144h-48" fill="#FFFFFF" p-id="2569"></path><path d="M812 389.336h-48a16 16 0 0 1 0-32h15.288l-87.12-112H332.176l-80.888 112H268a16 16 0 0 1 0 32h-48a16 16 0 0 1-12.976-25.368l104-144a15.992 15.992 0 0 1 12.976-6.632h376a16 16 0 0 1 12.632 6.184l112 144a16 16 0 0 1-12.632 25.816z" fill="#6E4123" p-id="2570"></path><path d="M324 509.336h88v184h-88z" fill="#FFFFFF" p-id="2571"></path><path d="M412 709.336h-88a16 16 0 0 1-16-16v-184a16 16 0 0 1 16-16h88a16 16 0 0 1 16 16v184a16 16 0 0 1-16 16z m-72-32h56v-152h-56v152z" fill="#6E4123" p-id="2572"></path><path d="M132 749.336h88v168h-88z" fill="#FFFFFF" p-id="2573"></path><path d="M220 933.336h-88a16 16 0 0 1-16-16v-168a16 16 0 0 1 16-16h88a16 16 0 0 1 16 16v168a16 16 0 0 1-16 16z m-72-32h56v-136h-56v136z" fill="#6E4123" p-id="2574"></path><path d="M468 509.336h96v184h-96z" fill="#FFFFFF" p-id="2575"></path><path d="M564 709.336h-96a16 16 0 0 1-16-16v-184a16 16 0 0 1 16-16h96a16 16 0 0 1 16 16v184a16 16 0 0 1-16 16z m-80-32h64v-152h-64v152z" fill="#6E4123" p-id="2576"></path><path d="M620 509.336h88v184h-88z" fill="#FFFFFF" p-id="2577"></path><path d="M708 709.336h-88a16 16 0 0 1-16-16v-184a16 16 0 0 1 16-16h88a16 16 0 0 1 16 16v184a16 16 0 0 1-16 16z m-72-32h56v-152h-56v152z" fill="#6E4123" p-id="2578"></path><path d="M324 757.336h88v88h-88z" fill="#FFFFFF" p-id="2579"></path><path d="M412 861.336h-88a16 16 0 0 1-16-16v-88a16 16 0 0 1 16-16h88a16 16 0 0 1 16 16v88a16 16 0 0 1-16 16z m-72-32h56v-56h-56v56z" fill="#6E4123" p-id="2580"></path><path d="M132 597.336h88v88h-88z" fill="#FFFFFF" p-id="2581"></path><path d="M220 701.336h-88a16 16 0 0 1-16-16v-88a16 16 0 0 1 16-16h88a16 16 0 0 1 16 16v88a16 16 0 0 1-16 16z m-72-32h56v-56h-56v56z" fill="#6E4123" p-id="2582"></path><path d="M812 749.336h88v168h-88z" fill="#FFFFFF" p-id="2583"></path><path d="M900 933.336h-88a16 16 0 0 1-16-16v-168a16 16 0 0 1 16-16h88a16 16 0 0 1 16 16v168a16 16 0 0 1-16 16z m-72-32h56v-136h-56v136z" fill="#6E4123" p-id="2584"></path><path d="M812 597.336h88v88h-88z" fill="#FFFFFF" p-id="2585"></path><path d="M900 701.336h-88a16 16 0 0 1-16-16v-88a16 16 0 0 1 16-16h88a16 16 0 0 1 16 16v88a16 16 0 0 1-16 16z m-72-32h56v-56h-56v56z" fill="#6E4123" p-id="2586"></path><path d="M468 757.336h96v88h-96z" fill="#FFFFFF" p-id="2587"></path><path d="M564 861.336h-96a16 16 0 0 1-16-16v-88a16 16 0 0 1 16-16h96a16 16 0 0 1 16 16v88a16 16 0 0 1-16 16z m-80-32h64v-56h-64v56z" fill="#6E4123" p-id="2588"></path><path d="M620 757.336h88v88h-88z" fill="#FFFFFF" p-id="2589"></path><path d="M708 861.336h-88a16 16 0 0 1-16-16v-88a16 16 0 0 1 16-16h88a16 16 0 0 1 16 16v88a16 16 0 0 1-16 16z m-72-32h56v-56h-56v56zM756 949.336a16 16 0 0 1-16-16v-400a16 16 0 0 1 32 0v400a16 16 0 0 1-16 16zM276 949.336a16 16 0 0 1-16-16v-400a16 16 0 0 1 32 0v400a16 16 0 0 1-16 16z" fill="#6E4123" p-id="2590"></path><path d="M396 237.336h248l-128-168z" fill="#FFFFFF" p-id="2591"></path><path d="M644 253.336h-248a16 16 0 0 1-13.016-25.296l120-168a15.976 15.976 0 0 1 12.776-6.704 15.944 15.944 0 0 1 12.976 6.304l128 168a15.984 15.984 0 0 1-12.736 25.696z m-216.912-32h184.608l-95.28-125.056-89.328 125.056z" fill="#6E4123" p-id="2592"></path><path d="M522.032 259.76l32.752 66.352 73.216 10.64-52.984 51.656 12.504 72.928-65.488-34.432-65.504 34.432 12.52-72.928-52.984-51.656 73.216-10.64z" fill="#F6E89A" p-id="2593"></path><path d="M587.52 477.336c-2.544 0-5.104-0.608-7.448-1.832l-58.048-30.512-58.056 30.512a16 16 0 1 1-23.216-16.864l11.096-64.632-46.96-45.792a16 16 0 0 1 8.864-27.288l64.896-9.432 29.024-58.808a16 16 0 0 1 28.696 0l29.024 58.808 64.896 9.432a16 16 0 0 1 8.864 27.288l-46.96 45.792 11.088 64.632a16.024 16.024 0 0 1-15.76 18.696z m-65.488-66.432c2.56 0 5.112 0.608 7.448 1.832l36.8 19.344-7.032-40.968a16.032 16.032 0 0 1 4.6-14.16l29.776-29.032-41.136-5.976a16.016 16.016 0 0 1-12.048-8.76l-18.4-37.28-18.4 37.28a16 16 0 0 1-12.048 8.76l-41.144 5.976 29.776 29.032c3.776 3.672 5.496 8.968 4.6 14.16l-7.032 40.968 36.8-19.344c2.328-1.224 4.88-1.832 7.44-1.832z" fill="#6E4123" p-id="2594"></path><path d="M674.032 341.336l17.912 36.296 40.056 5.824-28.984 28.256 6.84 39.888-35.824-18.832-35.832 18.832 6.848-39.888-28.984-28.256 40.056-5.824z" fill="#F6E89A" p-id="2595"></path><path d="M709.856 467.6c-2.544 0-5.104-0.608-7.448-1.832l-28.384-14.912-28.384 14.912a16.016 16.016 0 0 1-23.216-16.864l5.424-31.6-22.952-22.376a16 16 0 0 1 8.856-27.296l31.736-4.616 14.192-28.752a16 16 0 0 1 28.704 0l14.184 28.752 31.736 4.616a16.016 16.016 0 0 1 8.856 27.296l-22.952 22.376 5.424 31.6a16.016 16.016 0 0 1-15.776 18.696z m-35.824-50.832c2.552 0 5.112 0.608 7.448 1.832l7.136 3.752-1.368-7.944a16.032 16.032 0 0 1 4.608-14.168l5.768-5.624-7.976-1.16a16.016 16.016 0 0 1-12.048-8.76l-3.56-7.224-3.56 7.224a16 16 0 0 1-12.048 8.76l-7.976 1.16 5.768 5.624c3.776 3.68 5.496 8.976 4.608 14.168l-1.368 7.944 7.136-3.752c2.32-1.216 4.88-1.832 7.432-1.832z" fill="#6E4123" p-id="2596"></path><path d="M362.032 341.336l17.912 36.296 40.056 5.824-28.984 28.256 6.84 39.888-35.824-18.832-35.832 18.832 6.848-39.888-28.984-28.256 40.056-5.824z" fill="#F6E89A" p-id="2597"></path><path d="M397.856 467.6c-2.544 0-5.104-0.608-7.44-1.832l-28.384-14.912-28.384 14.912a16.008 16.008 0 0 1-23.208-16.864l5.424-31.6-22.96-22.376a16.008 16.008 0 0 1 8.864-27.296l31.736-4.616 14.192-28.752a16 16 0 0 1 28.688 0l14.192 28.752 31.736 4.616a16.016 16.016 0 0 1 8.864 27.296l-22.96 22.376 5.424 31.6a16.008 16.008 0 0 1-15.784 18.696z m-35.824-50.832c2.552 0 5.112 0.608 7.44 1.832l7.136 3.752-1.36-7.944a16.024 16.024 0 0 1 4.6-14.168l5.776-5.624-7.976-1.16a15.992 15.992 0 0 1-12.04-8.76l-3.568-7.224-3.568 7.224a16 16 0 0 1-12.04 8.76l-7.984 1.16 5.776 5.624c3.768 3.68 5.488 8.976 4.6 14.168l-1.368 7.944 7.136-3.752a16.08 16.08 0 0 1 7.44-1.832z" fill="#6E4123" p-id="2598"></path><path d="M964 949.336H68a24 24 0 0 1-24-24v-376a24 24 0 0 1-24-24v-72a24 24 0 0 1 24-24h200v-32h-24a24 24 0 0 1-19.456-38.056l104-144a24.016 24.016 0 0 1 19.456-9.944H384l112.8-150.4a24 24 0 0 1 18.824-9.6 24.224 24.224 0 0 1 19.12 9.008l120.792 150.992H700c7.408 0 14.4 3.424 18.944 9.264l110.544 142.144a24 24 0 0 1-17.336 40.592H788v32h200a24 24 0 0 1 24 24v72a24 24 0 0 1-24 24v376a24 24 0 0 1-24 24z m-872-48h848v-376a24 24 0 0 1 24-24v-24h-200a24 24 0 0 1-24-24v-80a24 24 0 0 1 22.944-23.976l-74.68-96.024H644a24.008 24.008 0 0 1-18.744-9.008l-108.64-135.808L415.2 243.728a23.984 23.984 0 0 1-19.2 9.6h-59.728l-69.336 96h1.064a24 24 0 0 1 24 24v80a24 24 0 0 1-24 24h-200v24a24 24 0 0 1 24 24v376.008z" fill="#6E4123" p-id="2599"></path></svg>