<?xml version="1.0" standalone="no"?><!DOCTYPE svg PUBLIC "-//W3C//DTD SVG 1.1//EN" "http://www.w3.org/Graphics/SVG/1.1/DTD/svg11.dtd"><svg t="1568645273523" class="icon" viewBox="0 0 1024 1024" version="1.1" xmlns="http://www.w3.org/2000/svg" p-id="3680" xmlns:xlink="http://www.w3.org/1999/xlink" width="200" height="200"><defs><style type="text/css"></style></defs><path d="M920 898.896c0 45-170.744 81.496-381.344 81.496-210.608 0-377.6-36.496-377.6-81.496 0-45.008 166.992-81.504 377.6-81.504 210.6 0.008 381.344 36.496 381.344 81.504z" fill="#B8CBCD" p-id="3681"></path><path d="M585.304 880.936c-18.144-7.632-158.856 2.584-174.952-8.456 0 0-200.968-1.456-205.464-1.432-45.272 0.248-82.512-91.312-83.144-204.504-0.64-113.2 35.544-205.192 80.816-205.448 2.984-0.016 78.904-3.6 136.552-3.928" fill="#EBBC96" p-id="3682"></path><path d="M115.216 667.96c0.632 113.192 37.864 204.752 83.128 204.504 2.36-0.016 58.68 0.192 111.584 0.408-10.672-15.04-21.192-30.184-32.288-44.968-21.328-28.448-42.608-53.408-52.736-88.208-16.504-56.728-4.2-118.008 12.976-173.168 11.712-37.68 48.032-64.376 77.824-91.088-49.048 0.288-115.816-0.016-118.072 0-45.264 0.264-83.064 79.328-82.416 192.52z" fill="#FFFFFF" p-id="3683"></path><path d="M197.504 667.872c0 111.856 67.2 186.616 67.2 186.616l121.64-0.616-26.496 7.424c-57.216-44.288-73.368-116.44-81.592-193.616-7.456-70.016 7.344-141.136 43.576-193.768-28.368-0.456-63.928-6.8-63.928-6.8s-60.4 81.4-60.4 200.76z" fill="#D6D0CC" p-id="3684"></path><path d="M180.544 887.392c-32.216 0-62.2-25.024-84.456-70.504C75.72 775.24 64.32 721.056 64 664.336c-0.48-84.6 24.848-165.056 64.536-204.96 16.128-16.216 34.184-24.792 52.224-24.792 16.176 0 30.296 0.04 44.144 0.08 26.816 0.064 52.648 0.144 90.656-0.08h0.136a24 24 0 0 1 0.136 48c-38.152 0.216-64.104 0.144-91.056 0.08-13.808-0.04-27.88-0.08-44.016-0.08-4.848 0-11.472 3.872-18.192 10.632-24.68 24.832-51.032 88.872-50.568 170.848 0.28 49.648 9.944 96.44 27.208 131.728 14.736 30.136 31.376 43.6 41.352 43.6h0.072c4.504-0.032 194.112 0 194.112 0v48c0.008 0-189.344-0.024-193.848 0h-0.352zM748.44 845.512a15.992 15.992 0 0 1-12.76-6.32c-9.704-12.776-22.56-40.752-9.2-64.584a16.008 16.008 0 0 1 27.928 15.64c-5.536 9.88 3.928 25.856 6.768 29.584a16 16 0 0 1-12.736 25.68z" fill="#4F3625" p-id="3685"></path><path d="M354.352 864.88c9.768 3.672 56 64 160 80 157.544 24.232 162.168-93.816 240-104l64-16 48-136c28.144 0 96-40 96-96 0-35.576-11.88-79.256-64-104-49.152-23.336-208-40-208-40-61.848 1.024 96-160 96-256 0-154.76-74.984-152-104-152-53.072 0 8 128-96 224C485.216 358.232 368.8 401.064 329.096 464.208" fill="#EBBC96" p-id="3686"></path><path d="M553.888 972.088c-13.224 0-27.568-1.088-43.184-3.496-89.8-13.808-140.096-58.304-161.568-77.304-2.12-1.872-4.68-4.144-6-5.192a24 24 0 0 1 19.664-43.68c6.136 2.304 10.648 6.296 18.136 12.92 19.872 17.576 61.216 54.152 137.072 65.824 85.568 13.176 116.784-18.744 149.832-52.52 22.144-22.624 45.024-46 81.944-51.352l50.232-12.56 43.704-123.832a24.008 24.008 0 0 1 22.632-16.016c17.64 0 72-32.4 72-72 0-39.328-16.456-66.248-50.288-82.32-36.928-17.528-154.904-33-198.968-37.68-19.752-0.24-28.808-10.848-32.488-17.28-14.264-24.888 5.84-57.92 39.16-112.64 29.664-48.728 66.584-109.368 66.584-150.08 0-54.592-10.048-93.488-29.056-112.472-15.616-15.584-35.248-15.48-49.408-15.528h-0.104c-2.456 6.504-3.784 22.944-4.792 35.304-3.904 48.136-9.808 120.888-76.368 182.328-48.408 44.688-99.52 77.72-144.608 106.848-48.368 31.256-90.136 58.248-108.616 87.624a23.968 23.968 0 0 1-33.088 7.528 23.984 23.984 0 0 1-7.536-33.088c24.128-38.368 70.032-68.032 123.184-102.384 43.472-28.088 92.736-59.92 138.104-101.808 52.8-48.736 57.584-107.816 61.088-150.944 2.872-35.384 6.448-79.424 51.192-79.424h1.464c17.576 0 53.704-0.096 83.4 29.56 29.032 28.992 43.144 76.888 43.144 146.44 0 54.168-40.8 121.184-73.584 175.04-11.528 18.952-26.296 43.192-33.08 58.28 39.008 4.424 159.576 19.456 204.96 41 50.832 24.136 77.704 67.592 77.704 125.68 0 60.216-59.552 106.368-102.12 117.456l-43.248 122.528a24 24 0 0 1-16.816 15.296l-64 16c-0.888 0.224-1.8 0.4-2.712 0.512-21.312 2.792-36.32 18.128-55.32 37.536-29.512 30.176-68.384 69.896-148.248 69.896z" fill="#4F3625" p-id="3687"></path><path d="M359.84 877.288c-3.28 0-6.6-1.008-9.456-3.104-60.904-44.704-88.088-108.392-88.128-206.504-0.048-88.832 18.752-152.352 64.88-219.232a16 16 0 0 1 26.344 18.168c-42.672 61.856-59.272 118.216-59.224 201.048 0.032 86.912 23.176 142.648 75.064 180.728a16 16 0 0 1-9.48 28.896z" fill="#4F3625" p-id="3688"></path><path d="M701.48 853.928s-44.248-19.224-90.792-16.896c-54.76 2.728-57.56 21.216-56.072 37.624 2.672 29.336 33.08 54.216 62.552 64.752 32.856 11.736 65.488 28.736 118.472 19.192 23.376-4.216 92.776-14.832 66.776-94" fill="#EBBC96" p-id="3689"></path><path d="M705.704 985.36c-34.76 0-61.304-10.064-83.672-18.544-4.336-1.64-8.624-3.272-12.92-4.808-36.344-12.984-74.664-44.352-78.384-85.168-0.616-6.784-2.256-24.784 11.144-40.208 12.504-14.4 34-21.888 67.632-23.56 51.648-2.608 99.528 17.976 101.544 18.848a24 24 0 0 1-19.088 44.04c-0.944-0.4-40.296-16.928-80.064-14.952-24.584 1.224-31.968 5.696-33.472 6.84a23.68 23.68 0 0 0 0.112 4.64c1.488 16.272 21.576 35.336 46.736 44.32 4.576 1.64 9.16 3.376 13.8 5.128 27.288 10.352 53.056 20.104 92.344 13.056l1.56-0.28c12.408-2.216 38.224-6.832 47.296-22.04 5.432-9.096 5.216-22.744-0.64-40.576a24.008 24.008 0 0 1 45.608-14.968c10.384 31.624 9.12 58.592-3.76 80.16-20.288 33.992-62.168 41.472-80.064 44.68l-1.488 0.264a193.792 193.792 0 0 1-34.224 3.128z" fill="#4F3625" p-id="3690"></path><path d="M755.64 763.784s-58.944-22.36-120.448-20.832c-72.352 1.784-75.632 22.24-73.296 40.488 4.208 32.624 44.992 60.944 84.216 73.296 43.704 13.776 87.248 33.4 157.096 24.008 30.824-4.144 122.352-14.336 86.16-102.808" fill="#EBBC96" p-id="3691"></path><path d="M767.52 907.192c-45.592 0-80.048-11.496-111.224-21.88-5.832-1.944-11.608-3.872-17.392-5.696-46.072-14.504-95.112-48.92-100.816-93.12-0.808-6.32-3.264-25.496 10.608-41.648 14.424-16.808 40.912-24.792 85.896-25.896 65.608-1.696 126.968 21.4 129.552 22.392a23.992 23.992 0 0 1 13.92 30.952 23.968 23.968 0 0 1-30.928 13.928c-0.688-0.256-55.432-20.768-111.36-19.288-38.472 0.944-48.576 7.456-50.352 8.896a22.96 22.96 0 0 0 0.264 4.544c2.432 18.792 32.136 42.272 67.624 53.456 6.032 1.896 12.064 3.904 18.16 5.936 37.848 12.624 73.592 24.584 128.528 17.168l2.032-0.264c16.952-2.256 56.656-7.536 68.136-27.352 5.552-9.584 4.536-23.824-3.024-42.312a23.984 23.984 0 0 1 13.128-31.296 23.976 23.976 0 0 1 31.296 13.128c13.488 32.968 13.536 61.424 0.136 84.544-23.296 40.224-77.36 47.416-103.344 50.864l-1.96 0.264c-13.84 1.872-26.752 2.68-38.88 2.68z" fill="#4F3625" p-id="3692"></path><path d="M780.16 673.568s-62.344-21.56-126.808-19.208c-75.84 2.768-78.816 23.272-75.936 41.496 5.168 32.576 48.584 60.352 90.008 72.176 46.16 13.184 92.28 32.224 165.312 21.888 32.232-4.56 128-16 88-104" fill="#EBBC96" p-id="3693"></path><path d="M791.928 816.872c-45.656 0-80.808-10.648-112.688-20.304-6.176-1.864-12.288-3.728-18.408-5.472-44.752-12.784-99.656-44.416-107.12-91.504-0.984-6.24-3.976-25.192 9.512-41.576 14.328-17.4 41.848-25.928 89.248-27.656 68.208-2.504 132.808 19.576 135.52 20.512a23.984 23.984 0 0 1 14.832 30.52 23.984 23.984 0 0 1-30.504 14.84c-0.584-0.2-59.04-20.032-118.112-17.912-40.168 1.464-51.288 8.112-53.496 9.816-0.008 0.648 0.056 1.856 0.384 3.952 2.984 18.808 35 42.024 72.888 52.84 6.368 1.816 12.72 3.744 19.144 5.688 38.504 11.656 78.296 23.728 136.224 15.512l2.128-0.296c18.128-2.536 60.576-8.496 71.856-29.024 5.144-9.36 3.632-23.152-4.48-40.984a24 24 0 1 1 43.704-19.864c14.712 32.368 15.664 60.616 2.832 83.96-22.856 41.608-79.864 49.6-107.256 53.448l-2.064 0.288a310.816 310.816 0 0 1-44.144 3.216z" fill="#4F3625" p-id="3694"></path><path d="M890.352 680.88c-56 24-112.864 9.08-160 0-42.304-8.152-88-32-96-64-4.472-17.888-3.312-38.584 72-48 64-8 128 8 128 8" fill="#EBBC96" p-id="3695"></path><path d="M823.36 717.848c-30.408 0-59.192-5.768-84.56-10.84-4.408-0.88-8.736-1.752-12.984-2.56-45.704-8.808-103.176-35.504-114.744-81.752-1.528-6.12-6.176-24.736 5.824-42.24 12.744-18.592 39.416-29.504 86.488-35.392 67.672-8.464 134 7.832 136.8 8.528a24 24 0 1 1-11.64 46.568c-0.576-0.136-60.648-14.792-119.2-7.472-39.872 4.984-50.376 12.584-52.432 14.48 0.056 0.648 0.224 1.832 0.736 3.896 4.624 18.48 38.552 38.792 77.256 46.24 4.36 0.84 8.808 1.736 13.32 2.64 41.56 8.304 88.648 17.744 132.688-1.136a24.04 24.04 0 0 1 31.52 12.608 24.016 24.016 0 0 1-12.608 31.52c-25.92 11.096-51.728 14.912-76.464 14.912zM642.352 192.872a16 16 0 0 1 0-32c23.192 0 38.88-5.6 46.624-16.648 13.112-18.728 2.456-49.576 2.336-49.88a16.016 16.016 0 0 1 9.568-20.512 15.992 15.992 0 0 1 20.504 9.568c0.688 1.888 16.568 46.664-6.208 79.176-14.072 20.112-38.576 30.296-72.824 30.296z" fill="#4F3625" p-id="3696"></path></svg>