<?xml version="1.0" standalone="no"?><!DOCTYPE svg PUBLIC "-//W3C//DTD SVG 1.1//EN" "http://www.w3.org/Graphics/SVG/1.1/DTD/svg11.dtd"><svg t="1568632839584" class="icon" viewBox="0 0 1024 1024" version="1.1" xmlns="http://www.w3.org/2000/svg" p-id="2723" xmlns:xlink="http://www.w3.org/1999/xlink" width="200" height="200"><defs><style type="text/css"></style></defs><path d="M134.656 881.488a381.336 94.512 0 1 0 762.672 0 381.336 94.512 0 1 0-762.672 0Z" fill="#B8CBCD" p-id="2724"></path><path d="M729.336 243.64l-208 94.536-208-94.536-208 94.536V896l208-94.544 208 94.544 208-94.544 208 94.544V338.176z" fill="#F6E89A" p-id="2725"></path><path d="M937.336 920c-3.376 0-6.76-0.712-9.928-2.152l-198.072-90.032-198.072 90.032a24.016 24.016 0 0 1-19.856 0l-198.072-90.032-198.072 90.032A24 24 0 0 1 81.336 896V338.176a24 24 0 0 1 14.072-21.848l208-94.544a24.016 24.016 0 0 1 19.856 0l198.072 90.024 198.072-90.024a24.016 24.016 0 0 1 19.856 0l208 94.544a24 24 0 0 1 14.072 21.848V896a23.984 23.984 0 0 1-24 24z m-624-142.544c3.384 0 6.776 0.72 9.928 2.152l198.072 90.032 198.072-90.032a24.016 24.016 0 0 1 19.856 0l174.072 79.12V353.632l-184-83.632-198.072 90.024a24.016 24.016 0 0 1-19.856 0L313.336 270l-184 83.632v505.096l174.072-79.12a23.84 23.84 0 0 1 9.928-2.152z" fill="#8D4520" p-id="2726"></path><path d="M105.352 743.984a15.992 15.992 0 0 1-15.968-17.256c0.048-0.576 1.192-14.352 6.96-34.44a16 16 0 0 1 30.76 8.824c-4.808 16.76-5.816 28.088-5.824 28.2a16.032 16.032 0 0 1-15.928 14.672zM681.336 736c-22.24-0.008-41.624-2.808-59.264-8.56A16 16 0 0 1 632 697.016c14.384 4.696 30.52 6.976 49.336 6.984 1.52 0 3.024-0.032 4.504-0.112a15.976 15.976 0 0 1 16.768 15.192 15.992 15.992 0 0 1-15.192 16.768c-1.992 0.104-4.024 0.152-6.08 0.152z m60.752-21.392a16 16 0 0 1-10.04-28.472c11.944-9.6 23.032-23.048 34.88-42.328a16 16 0 1 1 27.256 16.768c-13.832 22.488-27.2 38.536-42.096 50.504-2.944 2.376-6.48 3.528-10 3.528z m-165.84-17.912a15.944 15.944 0 0 1-11.328-4.704c-15.064-15.104-26.832-32.664-38.568-50.84a16 16 0 0 1 26.888-17.352c11.168 17.312 21.464 32.688 34.328 45.6a16 16 0 0 1-11.32 27.296z m-440.52-39.44a16 16 0 0 1-13.712-24.232 233.184 233.184 0 0 1 40.68-50.504 16.008 16.008 0 0 1 21.864 23.368 201.232 201.232 0 0 0-35.088 43.584 16 16 0 0 1-13.744 7.784z m673.824-42.312a16 16 0 0 1-14.192-23.384c9.52-18.312 19.808-37.592 31.656-54.256a16 16 0 0 1 26.08 18.544c-10.664 14.992-20.344 33.152-29.336 50.464a16 16 0 0 1-14.208 8.632z m-304.76-15.864a15.976 15.976 0 0 1-12.088-5.504c-12.96-14.912-26.352-25.504-42.152-33.352a16 16 0 1 1 14.216-28.664c19.448 9.648 36.488 23.064 52.088 41.024a15.992 15.992 0 0 1-12.064 26.496z m-281.744-23.608a16 16 0 0 1-7.368-30.216c18.312-9.488 38.52-17.048 60.064-22.48a16 16 0 0 1 7.816 31.032c-19.152 4.824-37.032 11.504-53.16 19.856a15.824 15.824 0 0 1-7.352 1.808z m176.792-29.816c-0.608 0-1.224-0.032-1.84-0.104A252.384 252.384 0 0 0 369.336 544a363.2 363.2 0 0 0-28.792 0.984 15.952 15.952 0 0 1-17.08-14.84 16 16 0 0 1 14.84-17.08 364.888 364.888 0 0 1 31.04-1.056c11.256 0 22.128 0.592 32.304 1.76a16 16 0 0 1-1.808 31.888zM886.152 522.096a16 16 0 0 1-6.192-30.76 96.024 96.024 0 0 1 37.376-7.336 16 16 0 0 1 0 32c-9.04 0-17.224 1.584-25 4.848a15.96 15.96 0 0 1-6.184 1.248z" fill="#8D4520" p-id="2727"></path><path d="M313.336 817.456a16 16 0 0 1-16-16V256a16 16 0 0 1 32 0v545.456a16 16 0 0 1-16 16zM521.336 904a16 16 0 0 1-16-16V342.544a16 16 0 0 1 32 0V888a16 16 0 0 1-16 16zM729.336 817.456a16 16 0 0 1-16-16V256a16 16 0 0 1 32 0v545.456a16 16 0 0 1-16 16z" fill="#8D4520" p-id="2728"></path><path d="M675.744 190.416c0 83.064-150.416 267.808-150.416 267.808S374.92 273.48 374.92 190.416C374.92 107.344 442.256 40 525.336 40s150.408 67.344 150.408 150.416z" fill="#FFBAB0" p-id="2729"></path><path d="M525.336 482.216a23.984 23.984 0 0 1-18.608-8.848c-15.952-19.584-155.808-193.928-155.808-282.96C350.92 94.24 429.16 16 525.336 16s174.416 78.24 174.416 174.416c0 89.032-139.856 263.368-155.808 282.96a24.016 24.016 0 0 1-18.608 8.84z m0-418.216c-69.704 0-126.416 56.712-126.416 126.416 0 48.592 71.248 157.416 126.408 229.104 55.168-71.712 126.416-180.552 126.416-229.104C651.744 120.712 595.04 64 525.336 64z" fill="#783741" p-id="2730"></path><path d="M525.336 190.416m-55.032 0a55.032 55.032 0 1 0 110.064 0 55.032 55.032 0 1 0-110.064 0Z" fill="#FFFFFF" p-id="2731"></path><path d="M525.336 261.44c-39.168 0-71.032-31.864-71.032-71.024 0-39.168 31.864-71.032 71.032-71.032 39.168 0 71.032 31.864 71.032 71.032 0 39.16-31.864 71.024-71.032 71.024z m0-110.056a39.072 39.072 0 0 0-39.032 39.032c0 21.52 17.512 39.024 39.032 39.024s39.032-17.512 39.032-39.024a39.072 39.072 0 0 0-39.032-39.032z" fill="#783741" p-id="2732"></path></svg>