<?xml version="1.0" standalone="no"?><!DOCTYPE svg PUBLIC "-//W3C//DTD SVG 1.1//EN" "http://www.w3.org/Graphics/SVG/1.1/DTD/svg11.dtd"><svg t="1568645207949" class="icon" viewBox="0 0 1024 1024" version="1.1" xmlns="http://www.w3.org/2000/svg" p-id="3547" xmlns:xlink="http://www.w3.org/1999/xlink" width="200" height="200"><defs><style type="text/css"></style></defs><path d="M144 914.896a381.336 81.488 0 1 0 762.672 0 381.336 81.488 0 1 0-762.672 0Z" fill="#B8CBCD" p-id="3548"></path><path d="M848 913.4H216c-72.896 0-136-63.104-136-136v-664h656v184" fill="#F6E89A" p-id="3549"></path><path d="M848 937.4H216c-86.728 0-160-73.272-160-160v-664a24 24 0 0 1 24-24h656a24 24 0 0 1 24 24v184a24 24 0 1 1-48 0v-160H104v640c0 59.664 52.336 112 112 112h632a24 24 0 1 1 0 48z" fill="#8D4520" p-id="3550"></path><path d="M736 297.4v484c0 72.896 39.104 132 112 132s104-59.104 104-132v-484H736z" fill="#F6E89A" p-id="3551"></path><path d="M848 937.4c-81.344 0-136-62.696-136-156v-484a24 24 0 0 1 24-24h216a24 24 0 0 1 24 24v484c0 96.224-49.048 156-128 156z m-88-616v460c0 52.208 23.12 108 88 108 69.608 0 80-67.664 80-108v-460H760zM434.512 369.4h-0.256a16 16 0 0 1-15.2-11.872l-36.344-136.336a16.008 16.008 0 0 1 11.336-19.584 15.984 15.984 0 0 1 19.584 11.336l21.832 81.928 24.808-82.152a16 16 0 0 1 15.32-11.376h0.32a16 16 0 0 1 15.168 11.992l20.904 80.792 24.568-81.408a16.048 16.048 0 0 1 19.944-10.696 16.008 16.008 0 0 1 10.696 19.944l-41.08 136.064a16 16 0 0 1-15.32 11.376h-0.32a16.008 16.008 0 0 1-15.168-11.992L474.4 276.624l-24.568 81.408a16 16 0 0 1-15.32 11.368zM287.88 369.064a16 16 0 0 1-16-16v-136a15.992 15.992 0 0 1 16-16h0.064l66.376 0.272a16 16 0 0 1-0.064 32h-0.064l-50.312-0.208v119.936a16 16 0 0 1-16 16z" fill="#8D4520" p-id="3552"></path><path d="M354.256 297.4h-58.312a16 16 0 0 1 0-32h58.312a16 16 0 0 1 0 32zM354.256 369.4h-58.312a16 16 0 0 1 0-32h58.312a16 16 0 0 1 0 32zM621.232 369.4c-34.104 0-56.2-23.6-57.128-24.6a16 16 0 0 1 23.544-21.672c0.056 0.056 13.808 14.272 33.576 14.272 17.568 0 26.768-7.88 26.768-15.672 0-10.384-10.496-15.352-32.76-23.504-20.96-7.664-49.656-18.152-49.656-47.928 0-29.28 21.88-48.96 54.464-48.96 26.056 0 45.224 12.264 47.328 13.664a16 16 0 0 1-17.656 26.688c-0.432-0.264-13.32-8.352-29.672-8.352-14.904 0-22.464 5.704-22.464 16.96 0 6.888 11.344 11.552 28.64 17.872C648.92 276.464 680 287.832 680 321.728c0 23.688-20.184 47.672-58.768 47.672zM151.88 369.4a16 16 0 0 1-16-16V217.064a15.992 15.992 0 0 1 29.432-8.696l58.568 90.512V217.064a16 16 0 0 1 32 0v136c0 7.096-4.664 13.336-11.472 15.344a15.96 15.96 0 0 1-17.96-6.648l-58.568-90.512v82.16a16 16 0 0 1-16 15.992z" fill="#8D4520" p-id="3553"></path><path d="M151.88 417.4h232v168h-232z" fill="#FFFFFF" p-id="3554"></path><path d="M383.88 601.4h-232a16 16 0 0 1-16-16v-168a16 16 0 0 1 16-16h232a16 16 0 0 1 16 16v168a16 16 0 0 1-16 16z m-216-32h200v-136h-200v136zM663.88 441.4h-224a16 16 0 0 1 0-32h224a16 16 0 0 1 0 32zM591.88 601.4h-152a16 16 0 0 1 0-32h152a16 16 0 0 1 0 32zM482.96 521.4h-43.08a16 16 0 0 1 0-32h43.08a16 16 0 0 1 0 32zM663.88 521.4h-112a16 16 0 0 1 0-32h112a16 16 0 0 1 0 32zM663.88 681.4h-512a16 16 0 0 1 0-32h512a16 16 0 0 1 0 32zM447.264 761.4H151.88a16 16 0 0 1 0-32h295.384a16 16 0 0 1 0 32zM663.88 761.4h-160a16 16 0 0 1 0-32h160a16 16 0 0 1 0 32z" fill="#8D4520" p-id="3555"></path><path d="M104 849.4h648v48H104z" fill="#8D4520" p-id="3556"></path></svg>