<?xml version="1.0" standalone="no"?><!DOCTYPE svg PUBLIC "-//W3C//DTD SVG 1.1//EN" "http://www.w3.org/Graphics/SVG/1.1/DTD/svg11.dtd"><svg t="1568644815303" class="icon" viewBox="0 0 1024 1024" version="1.1" xmlns="http://www.w3.org/2000/svg" p-id="3403" xmlns:xlink="http://www.w3.org/1999/xlink" width="200" height="200"><defs><style type="text/css"></style></defs><path d="M316 389.6v76.888c0 117.08 94.912 212 212 212s212-94.92 212-212V363.408s-40-98.08-216-98.08-208 124.272-208 124.272z" fill="#F6E89A" p-id="3404"></path><path d="M528 694.488c-125.72 0-228-102.28-228-228V389.6c0-1.344 0.168-2.688 0.504-3.992 0.352-1.36 37.24-136.272 223.496-136.272 184.632 0 229.016 103.624 230.816 108.04 0.784 1.912 1.184 3.968 1.184 6.04v103.08c0 125.712-102.28 227.992-228 227.992zM332 391.92v74.568c0 108.08 87.92 196 196 196s196-87.92 196-196V366.984c-7.504-14.544-51.744-85.648-200-85.648-150.784 0-187.488 96.592-192 110.584z" fill="#8D4520" p-id="3405"></path><path d="M420 465.336m-24 0a24 24 0 1 0 48 0 24 24 0 1 0-48 0Z" fill="#8D4520" p-id="3406"></path><path d="M644 465.336m-24 0a24 24 0 1 0 48 0 24 24 0 1 0-48 0Z" fill="#8D4520" p-id="3407"></path><path d="M468 545.336c0 33.144 26.864 64 60 64 33.144 0 60-30.856 60-64h-120zM203.992 937.344a24 24 0 0 1-22.416-32.552c69.352-182.032 271.04-175.6 272.952-175.496a24 24 0 0 1 22.952 25c-0.56 13.224-11.968 23.528-24.944 22.952-7.008-0.248-169.232-4.68-226.104 144.632a24.032 24.032 0 0 1-22.44 15.464zM860.008 937.344a24.016 24.016 0 0 1-22.44-15.464C780.4 771.808 617.176 777.048 615.536 777.184c-13.16 0.656-24.448-9.696-25.016-22.936a24 24 0 0 1 22.936-25.016c2-0.08 199.608-6.52 268.968 175.552a24.008 24.008 0 0 1-22.416 32.56z" fill="#8D4520" p-id="3408"></path><path d="M324 249.336v144s279.552 0 279.552-88c0 88 128.448 96 128.448 96v-168" fill="#F7BB83" p-id="3409"></path><path d="M732 417.336c-0.328 0-0.664-0.008-0.992-0.032-39.208-2.448-106.04-20.048-132.344-67.552-60.496 56.2-234.096 59.584-274.664 59.584a16 16 0 0 1-16-16v-144a16 16 0 0 1 32 0v127.848c107.832-2.072 247.552-24.6 247.552-71.84a16 16 0 0 1 32 0c0 54.56 64.784 72.368 96.448 77.808V233.336a16 16 0 0 1 32 0v168a16 16 0 0 1-16 16z" fill="#8D4520" p-id="3410"></path><path d="M300.96 255.008c0-43.864 103.44-79.424 231.04-79.424s231.04 35.552 231.04 79.424v78.248c0-43.864-103.44-79.424-231.04-79.424s-231.04 35.552-231.04 79.424v-78.248z" fill="#FFFFFF" p-id="3411"></path><path d="M763.04 349.256a16 16 0 0 1-16-16c0-25.856-83.776-63.424-215.04-63.424s-215.04 37.56-215.04 63.424a16 16 0 0 1-32 0v-78.248c0-62.648 124.272-95.424 247.04-95.424 122.768 0 247.04 32.776 247.04 95.424v78.248a16 16 0 0 1-16 16zM532 237.832c84.76 0 170.232 15.624 215.04 45.912v-28.744c0-25.856-83.776-63.424-215.04-63.424s-215.04 37.56-215.04 63.424v28.744c44.808-30.288 130.28-45.912 215.04-45.912z" fill="#8D4520" p-id="3412"></path><path d="M300.96 152.752c0-43.864 103.44-79.424 231.04-79.424s231.04 35.552 231.04 79.424v101.08c0-43.856-103.44-79.424-231.04-79.424s-231.04 35.56-231.04 79.424V152.752z" fill="#F7BB83" p-id="3413"></path><path d="M763.04 269.832a16 16 0 0 1-16-16c0-25.856-83.776-63.424-215.04-63.424s-215.04 37.56-215.04 63.424a16 16 0 0 1-32 0V152.752c0-62.648 124.272-95.424 247.04-95.424 122.768 0 247.04 32.776 247.04 95.424v101.08a16 16 0 0 1-16 16zM532 158.408c84.76 0 170.232 15.624 215.04 45.912v-51.568c0-25.856-83.776-63.424-215.04-63.424s-215.04 37.56-215.04 63.424v51.568c44.808-30.28 130.28-45.912 215.04-45.912z" fill="#8D4520" p-id="3414"></path><path d="M708 721.336l-128 48v-80l128-48z" fill="#F6E89A" p-id="3415"></path><path d="M580 793.336a23.992 23.992 0 0 1-24-24v-80c0-10.008 6.2-18.96 15.568-22.472l128-48a23.992 23.992 0 0 1 32.432 22.472v80c0 10.008-6.2 18.96-15.568 22.472l-128 48a24.048 24.048 0 0 1-8.432 1.528z m24-87.368v28.736l80-30v-28.736l-80 30z" fill="#8D4520" p-id="3416"></path><path d="M356 721.336l128 48v-80l-128-48z" fill="#F6E89A" p-id="3417"></path><path d="M484 793.336c-2.848 0-5.696-0.504-8.432-1.528l-128-48a23.984 23.984 0 0 1-15.568-22.472v-80a24 24 0 0 1 32.432-22.472l128 48a23.984 23.984 0 0 1 15.568 22.472v80a24 24 0 0 1-24 24z m-104-88.632l80 30v-28.736l-80-30v28.736z" fill="#8D4520" p-id="3418"></path><path d="M540 702.488c-134.952 0-248.96-108.08-248.96-236v-110.96a24.008 24.008 0 0 1-15.04-22.272V160.752c0-67.896 128.304-103.424 255.04-103.424 123.576 0 256.96 42.824 256.96 112v168a24 24 0 0 1-16 22.632V466.48c0 132.344-101.904 236.008-232 236.008z m-216-419.696l0.784 0.328a24 24 0 0 1 14.256 21.936v161.432c0 100.152 93.904 188 200.96 188 103.176 0 184-82.576 184-188V307.968a24 24 0 0 1 16-22.624V169.336c0-19-81.096-64-208.96-64-136.6 0-207.04 38.848-207.04 55.424v122.032z" fill="#8D4520" p-id="3419"></path><path d="M400 877.336m-44 0a44 44 0 1 0 88 0 44 44 0 1 0-88 0Z" fill="#F6E89A" p-id="3420"></path><path d="M400 945.336c-37.496 0-68-30.504-68-68s30.504-68 68-68c37.488 0 68 30.504 68 68s-30.512 68-68 68z m0-88a20.016 20.016 0 0 0-20 20c0 11.032 8.968 20 20 20s20-8.968 20-20-8.968-20-20-20z" fill="#8D4520" p-id="3421"></path><path d="M656 877.336m-44 0a44 44 0 1 0 88 0 44 44 0 1 0-88 0Z" fill="#F6E89A" p-id="3422"></path><path d="M656 945.336c-37.496 0-68-30.504-68-68s30.504-68 68-68c37.488 0 68 30.504 68 68s-30.512 68-68 68z m0-88a20.016 20.016 0 0 0-20 20c0 11.032 8.968 20 20 20s20-8.968 20-20-8.968-20-20-20z" fill="#8D4520" p-id="3423"></path></svg>