<?xml version="1.0" standalone="no"?><!DOCTYPE svg PUBLIC "-//W3C//DTD SVG 1.1//EN" "http://www.w3.org/Graphics/SVG/1.1/DTD/svg11.dtd"><svg t="1568632889477" class="icon" viewBox="0 0 1024 1024" version="1.1" xmlns="http://www.w3.org/2000/svg" p-id="2856" xmlns:xlink="http://www.w3.org/1999/xlink" width="200" height="200"><defs><style type="text/css"></style></defs><path d="M116 878.504a381.336 94.504 0 1 0 762.672 0 381.336 94.504 0 1 0-762.672 0Z" fill="#B8CBCD" p-id="2857"></path><path d="M561.544 139.432c-0.408 2.392-0.848 4.792-1.464 7.192-12.096 47.056-60.048 75.4-107.104 63.304-47.056-12.096-75.392-60.048-63.296-107.104 0.616-2.4 1.384-4.712 2.168-7.008L299.2 72 149.12 655.96l355.008 91.248 150.088-583.968-92.672-23.808z" fill="#F6E89A" p-id="2858"></path><path d="M489.464 842.016c-2 0-4.008-0.248-5.976-0.76L125.152 749.16a24 24 0 0 1-17.264-29.216L275.336 68.448a24 24 0 0 1 29.216-17.272l92.664 23.824a24.016 24.016 0 0 1 16.72 31.048c-0.456 1.32-0.768 2.12-1.032 2.8a63.6 63.6 0 0 0 6.912 48.432 63.52 63.52 0 0 0 39.144 29.408 63.92 63.92 0 0 0 77.88-46.032c0.096-0.68 0.2-1.528 0.44-2.888a24.024 24.024 0 0 1 29.624-19.16l95.968 24.672a24 24 0 0 1 17.264 29.216l-167.44 651.496a23.968 23.968 0 0 1-23.232 18.024zM160.352 708.64L472.184 788.8 627.68 183.792l-50.72-13.04a111.88 111.88 0 0 1-129.952 62.416 111.28 111.28 0 0 1-68.52-51.48 111.16 111.16 0 0 1-15.248-65.872l-47.392-12.184L160.352 708.64z" fill="#8D4520" p-id="2859"></path><path d="M268.56 274.712L587.2 356.6 474.944 793.408 156.304 711.52z" fill="#FFFFFF" p-id="2860"></path><path d="M269.4 284.336a16.4 16.4 0 0 1-3.992-0.504l-19.368-4.976a16 16 0 0 1 7.968-30.992l19.368 4.976a16 16 0 0 1-3.976 31.496zM550.52 356.592a16.4 16.4 0 0 1-3.992-0.504l-35.144-9.032a16 16 0 0 1 7.976-30.992l35.144 9.032a16.016 16.016 0 0 1 11.52 19.48 16.04 16.04 0 0 1-15.504 12.016z m-70.28-18.064a16.4 16.4 0 0 1-3.992-0.504l-35.144-9.032a16 16 0 0 1 7.976-30.992l35.136 9.032a16 16 0 0 1-3.976 31.496z m-70.28-18.064c-1.312 0-2.656-0.168-3.992-0.512l-35.144-9.032a16 16 0 0 1 7.976-30.992l35.144 9.032a16 16 0 0 1-3.984 31.504zM339.68 302.4a16.4 16.4 0 0 1-3.992-0.504l-35.144-9.032a16 16 0 0 1 7.976-30.992l35.144 9.032a16 16 0 0 1-3.984 31.496zM605.04 370.608a16.4 16.4 0 0 1-3.992-0.504l-19.368-4.984a16.008 16.008 0 0 1-11.52-19.472 15.984 15.984 0 0 1 19.488-11.512l19.368 4.976a16 16 0 0 1-3.976 31.496zM232.136 673.24a16.016 16.016 0 0 1-15.512-19.992l42.496-165.312a16.008 16.008 0 0 1 31 7.976l-42.496 165.312a16 16 0 0 1-15.488 12.016zM297.28 689.984a16.008 16.008 0 0 1-15.504-19.992l21.832-84.944a16.008 16.008 0 0 1 31 7.976l-21.832 84.944a16.024 16.024 0 0 1-15.496 12.016zM337.632 532.984a16.008 16.008 0 0 1-15.504-19.992l35.6-138.504a16 16 0 0 1 31 7.968l-35.6 138.512a16.024 16.024 0 0 1-15.496 12.016zM285.76 464.288a16 16 0 0 1-15.504-20l22.36-86.648a16 16 0 0 1 30.992 7.992l-22.36 86.656a16.008 16.008 0 0 1-15.488 12zM355.912 705.056a16.008 16.008 0 0 1-15.504-19.992l42.488-165.312a16 16 0 0 1 31 7.968L371.408 693.04a16.024 16.024 0 0 1-15.496 12.016zM427.584 723.48a16.008 16.008 0 0 1-15.504-19.992l21.832-84.944a16.032 16.032 0 0 1 19.48-11.512 16.008 16.008 0 0 1 11.512 19.488l-21.824 84.944a16.024 16.024 0 0 1-15.496 12.016zM467.936 566.48a16.008 16.008 0 0 1-15.504-19.992l35.6-138.512a16.008 16.008 0 0 1 31 7.968l-35.6 138.512a16.016 16.016 0 0 1-15.496 12.024zM409.456 496.76a16.008 16.008 0 0 1-15.504-19.992l22.448-87.312a16.008 16.008 0 0 1 31 7.976l-22.448 87.312a16.032 16.032 0 0 1-15.496 12.016z" fill="#8D4520" p-id="2861"></path><path d="M904.832 413.6c-1.632 1.8-3.28 3.576-5.096 5.264-35.456 33.216-91.128 31.408-124.344-4.048-33.216-35.464-31.392-91.128 4.064-124.344 1.808-1.696 3.704-3.232 5.6-4.744l-65.424-69.824-440.008 412.224 250.608 267.504 440.008-412.208-65.408-69.824z" fill="#B2EDA6" p-id="2862"></path><path d="M479.864 971.504a23.952 23.952 0 0 1-17.52-7.592L209.408 693.904a23.976 23.976 0 0 1 1.104-33.92l490.904-459.872a24 24 0 0 1 33.92 1.112l65.4 69.816c4.576 4.888 6.904 11.472 6.424 18.152a24.048 24.048 0 0 1-8.984 17.032 78.656 78.656 0 0 1-2.32 1.768c-25.736 24.128-27.056 64.688-2.944 90.432a63.352 63.352 0 0 0 46.696 20.224 63.76 63.76 0 0 0 43.728-17.288c0.44-0.504 0.992-1.168 1.912-2.184a23.984 23.984 0 0 1 17.584-7.856h0.184c6.632 0 12.976 2.752 17.512 7.592l67.752 72.32a24 24 0 0 1-1.112 33.92l-490.896 459.88c-4.456 4.16-10.32 6.472-16.408 6.472zM260.84 678.608l220.136 234.976 455.864-427.072-35.808-38.208a111.536 111.536 0 0 1-61.424 18.336c-30.848 0-60.64-12.904-81.736-35.416-37.736-40.28-39.88-101.312-7.704-143.96l-33.464-35.72-455.864 427.064z" fill="#3C663E" p-id="2863"></path><path d="M585 370.544l224.936 240.104-329.152 308.36L255.84 678.904z" fill="#FFFFFF" p-id="2864"></path><path d="M589.136 381.576a15.96 15.96 0 0 1-11.68-5.064l-13.672-14.592a16 16 0 1 1 23.36-21.88l13.672 14.592a16 16 0 0 1-11.68 26.944zM787.576 593.408a15.96 15.96 0 0 1-11.68-5.064l-24.808-26.48a16 16 0 1 1 23.36-21.872l24.808 26.48a16 16 0 0 1-11.68 26.936z m-49.608-52.96a15.96 15.96 0 0 1-11.68-5.064l-24.808-26.48a16 16 0 1 1 23.36-21.872l24.808 26.48a16 16 0 0 1-11.68 26.936z m-49.616-52.952a15.96 15.96 0 0 1-11.68-5.064l-24.808-26.48a16 16 0 1 1 23.36-21.872l24.808 26.48a16 16 0 0 1-11.68 26.936z m-49.608-52.968a15.96 15.96 0 0 1-11.68-5.064l-24.808-26.48a16 16 0 1 1 23.36-21.872l24.808 26.48a16 16 0 0 1-11.68 26.936zM826.064 634.488a15.96 15.96 0 0 1-11.68-5.064l-13.672-14.592a16 16 0 1 1 23.36-21.872l13.672 14.592a16 16 0 0 1-11.68 26.936zM348.992 689.76a16 16 0 0 1-10.936-27.68l124.568-116.688a16 16 0 1 1 21.872 23.36L359.928 685.44c-3.088 2.888-7.016 4.32-10.936 4.32zM394.984 738.832a16 16 0 0 1-10.936-27.68l64-59.944a16 16 0 1 1 21.872 23.36l-64 59.944a15.92 15.92 0 0 1-10.936 4.32zM513.28 628.016a16 16 0 0 1-10.936-27.68L606.72 502.568a16.008 16.008 0 0 1 21.872 23.36L524.216 623.696c-3.08 2.888-7.016 4.32-10.936 4.32zM506.376 542.208a16 16 0 0 1-10.928-27.688l65.368-61.136a16 16 0 0 1 21.856 23.376l-65.368 61.136a15.936 15.936 0 0 1-10.928 4.312zM436.384 783.024a16 16 0 0 1-10.936-27.68L550 638.656a16 16 0 1 1 21.872 23.36L447.32 778.704c-3.088 2.888-7.016 4.32-10.936 4.32zM486.96 837.024a16 16 0 0 1-10.936-27.68l64.008-59.952a16 16 0 1 1 21.872 23.36l-64.008 59.952c-3.08 2.888-7.016 4.32-10.936 4.32zM605.248 726.192a16 16 0 0 1-10.936-27.68l104.384-97.768a16 16 0 1 1 21.872 23.36L616.184 721.872c-3.08 2.896-7.016 4.32-10.936 4.32zM593.336 635.992a15.936 15.936 0 0 1-11.672-5.064 15.976 15.976 0 0 1 0.736-22.608l65.784-61.64a15.976 15.976 0 0 1 22.608 0.736 15.976 15.976 0 0 1-0.736 22.608l-65.784 61.64a15.936 15.936 0 0 1-10.936 4.328z" fill="#3C663E" p-id="2865"></path></svg>